<svg id="Livello_1" data-name="Livello 1" xmlns="http://www.w3.org/2000/svg" viewBox="0 0 254.86 137.53">
  <defs>
    <style>.cls-1{fill:#ffffff;stroke:#ffffff;stroke-linecap:round;stroke-linejoin:round;}</style>
  </defs>
  <path class="cls-1" d="M184,119.61c-23-.48-22.91-32.52-22.91-32.52-7.83,3.94-13.86,31-13.86,31H128.48L140.8,47s2.16-7.92-3.68-7.75H123.66l-95.9.83S-1.11,45.6.94,78.94c1.23,22.3,18.82,24.34,18.82,24.34l74.45-.57a35.9,35.9,0,0,0,6.17,17.48c16.29,23.44,60.06,21.07,99.05-3C199.43,117.21,191.11,119.76,184,119.61ZM21.79,100.75S5.46,100,4.4,79.33C2.7,46.27,28.65,42.54,28.65,42.54H132l-10.69,57.64Z"/>
  <path class="cls-1" d="M137,28.39c13.6.3,19-4.71,19-4.71h8.76L154,84.53C176.5,52.88,195.42,52,198.9,52s10.63.87,10.63,7.82-6.14,8.75-9.61,8.75c-4.76,0-9.41-3.89-9.41-3.89C184.89,64.44,178.8,72,178.8,72S180,107.8,196,105.4a28.35,28.35,0,0,0,7.73-2.76l6.2,7.92c37.42-28.21,54.32-68.85,37.76-92.68-17.23-24.8-64.16-22-104.84,6.25-1.89,1.31-4,2.88-5.79,4.26"/>
  <path class="cls-1" d="M56.29,59.92s.87-10.33-14.67-10.38S11.28,60.05,11.28,77,26.55,94.86,33,94.18c3.12-.33,12.21-.85,21.16-10.65l-4.69-5.27C31.92,93.77,23.35,84.62,25,75.32,25,75.32,56.3,76.49,56.29,59.92Zm-18.73-2.8c9.2-.75,6.2,12.07-11.73,12.17C26.8,62,32.73,57.51,37.56,57.12Z"/>
  <path class="cls-1" d="M112.06,49.52l-14.34,0S92.21,80,92.2,80c-.16.15-4.31,3.94-8.52,3.34S80,80.24,80,80.24l4.84-30.67-6.67.13c-4,3.28-14.27,3.62-14.27,3.62L63,60.05c13-.22-3.61,22.39,4.31,30.55,7.73,8,24.61-1.53,25.52-2,3.65,9.14,21.21,2.29,23.78-1.86h0l-3.74-5.25c-1.31,1.09-6.64,3.15-6-1.16C107.25,77.82,112.06,49.52,112.06,49.52Z"/>
</svg>